<?xml version="1.0" standalone="no"?>
<!DOCTYPE svg PUBLIC "-//W3C//DTD SVG 20010904//EN"
 "http://www.w3.org/TR/2001/REC-SVG-20010904/DTD/svg10.dtd">
<svg version="1.0" xmlns="http://www.w3.org/2000/svg"
 width="584.000000pt" height="584.000000pt" viewBox="0 0 584.000000 584.000000"
 preserveAspectRatio="xMidYMid meet">
<metadata>
Created by potrace 1.11, written by Peter Selinger 2001-2013
</metadata>
<g transform="translate(0.000000,584.000000) scale(0.100000,-0.100000)"
fill="#000000" stroke="none">
<path d="M3320 5470 c0 -5 -22 -10 -50 -10 -27 0 -50 -4 -50 -10 0 -5 -22 -10
-50 -10 -27 0 -50 -4 -50 -10 0 -5 -18 -10 -40 -10 -22 0 -40 -4 -40 -10 0 -5
-22 -10 -50 -10 -27 0 -50 -4 -50 -10 0 -5 -22 -10 -50 -10 -27 0 -50 -4 -50
-10 0 -5 -22 -10 -50 -10 -27 0 -50 -4 -50 -10 0 -5 -18 -10 -40 -10 -22 0
-40 -4 -40 -10 0 -5 -22 -10 -50 -10 -27 0 -50 -4 -50 -10 0 -5 -22 -10 -50
-10 -27 0 -50 -4 -50 -10 0 -5 -18 -10 -40 -10 -22 0 -40 -4 -40 -10 0 -5 -18
-10 -40 -10 l-40 0 0 -1760 0 -1760 50 0 c28 0 50 5 50 10 0 6 18 10 40 10 22
0 40 5 40 10 0 6 23 10 50 10 28 0 50 5 50 10 0 6 23 10 50 10 28 0 50 5 50
10 0 6 18 10 40 10 22 0 40 5 40 10 0 6 23 10 50 10 28 0 50 5 50 10 0 6 23
10 50 10 28 0 50 5 50 10 0 6 23 10 50 10 28 0 50 5 50 10 0 6 18 10 40 10 22
0 40 5 40 10 0 6 23 10 50 10 28 0 50 5 50 10 0 6 23 10 50 10 28 0 50 5 50
10 0 6 18 10 40 10 l40 0 0 1760 0 1760 -50 0 c-27 0 -50 -4 -50 -10z"/>
<path d="M3380 1930 c0 -5 -22 -10 -50 -10 -27 0 -50 -4 -50 -10 0 -5 -18 -10
-40 -10 -22 0 -40 -4 -40 -10 0 -5 -22 -10 -50 -10 -27 0 -50 -4 -50 -10 0 -5
-22 -10 -50 -10 -27 0 -50 -4 -50 -10 0 -5 -22 -10 -50 -10 -27 0 -50 -4 -50
-10 0 -5 -18 -10 -40 -10 -22 0 -40 -4 -40 -10 0 -5 -22 -10 -50 -10 -27 0
-50 -4 -50 -10 0 -5 -22 -10 -50 -10 -27 0 -50 -4 -50 -10 0 -5 -18 -10 -40
-10 -22 0 -40 -4 -40 -10 0 -5 -22 -10 -50 -10 -27 0 -50 -4 -50 -10 0 -5 -22
-10 -50 -10 -27 0 -50 -4 -50 -10 0 -5 -9 -10 -20 -10 -19 0 -20 -7 -20 -90 0
-75 3 -90 16 -90 15 0 44 -23 44 -34 0 -3 -13 -6 -30 -6 l-30 0 0 -90 0 -90
50 0 c28 0 50 5 50 10 0 6 23 10 50 10 28 0 50 5 50 10 0 6 23 10 50 10 28 0
50 5 50 10 0 6 23 10 50 10 28 0 50 5 50 10 0 6 18 10 40 10 22 0 40 5 40 10
0 6 23 10 50 10 28 0 50 5 50 10 0 6 23 10 50 10 28 0 50 5 50 10 0 6 18 10
40 10 22 0 40 5 40 10 0 6 23 10 50 10 28 0 50 5 50 10 0 6 23 10 50 10 28 0
50 5 50 10 0 6 23 10 50 10 28 0 50 5 50 10 0 6 14 10 30 10 l30 0 0 100 c0
93 -1 100 -20 100 -11 0 -20 -4 -20 -10 0 -5 -18 -10 -39 -10 -22 0 -41 -5
-43 -12 -3 -9 -9 -8 -21 4 -25 25 -22 28 33 28 28 0 50 5 50 10 0 6 14 10 30
10 l30 0 0 100 c0 93 -1 100 -20 100 -11 0 -20 -4 -20 -10z"/>
<path d="M3300 1450 c0 -5 -18 -10 -40 -10 -22 0 -40 -4 -40 -10 0 -5 -22 -10
-50 -10 -27 0 -50 -4 -50 -10 0 -5 -22 -10 -50 -10 -27 0 -50 -4 -50 -10 0 -5
-22 -10 -50 -10 -27 0 -50 -4 -50 -10 0 -5 -18 -10 -40 -10 -22 0 -40 -4 -40
-10 0 -5 -22 -10 -50 -10 -27 0 -50 -4 -50 -10 0 -5 -22 -10 -50 -10 -27 0
-50 -4 -50 -10 0 -5 -18 -10 -40 -10 -22 0 -40 -4 -40 -10 0 -5 -22 -10 -50
-10 -27 0 -50 -4 -50 -10 0 -5 -22 -10 -50 -10 -27 0 -50 -4 -50 -10 0 -5 -13
-10 -30 -10 l-30 0 0 -80 0 -80 50 0 c28 0 50 5 50 10 0 6 23 10 50 10 28 0
50 5 50 10 0 6 23 10 50 10 28 0 50 5 50 10 0 6 18 10 40 10 22 0 40 5 40 10
0 6 23 10 50 10 28 0 50 5 50 10 0 6 23 10 50 10 28 0 50 5 50 10 0 6 23 10
50 10 28 0 50 5 50 10 0 6 18 10 40 10 22 0 40 5 40 10 0 6 23 10 50 10 28 0
50 5 50 10 0 6 23 10 50 10 28 0 50 5 50 10 0 6 18 10 40 10 22 0 40 5 40 10
0 6 18 10 40 10 l40 0 0 80 0 80 -60 0 c-33 0 -60 -4 -60 -10z"/>
<path d="M3380 1190 c0 -5 -18 -10 -40 -10 -22 0 -40 -4 -40 -10 0 -5 -22 -10
-50 -10 -27 0 -50 -4 -50 -10 0 -5 -22 -10 -50 -10 -27 0 -50 -4 -50 -10 0 -5
-18 -10 -40 -10 -22 0 -40 -4 -40 -10 0 -5 -22 -10 -50 -10 -27 0 -50 -4 -50
-10 0 -5 -22 -10 -50 -10 -27 0 -50 -4 -50 -10 0 -5 -22 -10 -50 -10 -27 0
-50 -4 -50 -10 0 -5 -18 -10 -40 -10 -22 0 -40 -4 -40 -10 0 -5 -22 -10 -50
-10 -27 0 -50 -4 -50 -10 0 -5 -22 -10 -50 -10 -27 0 -50 -4 -50 -10 0 -5 -18
-10 -40 -10 -22 0 -40 -4 -40 -10 0 -5 -13 -10 -30 -10 l-30 0 0 -60 0 -60 40
0 c22 0 40 5 40 10 0 6 23 10 50 10 28 0 50 5 50 10 0 6 18 10 40 10 22 0 40
5 40 10 0 6 23 10 50 10 28 0 50 5 50 10 0 6 23 10 50 10 28 0 50 5 50 10 0 6
23 10 50 10 28 0 50 5 50 10 0 6 18 10 40 10 22 0 40 5 40 10 0 6 23 10 50 10
28 0 50 5 50 10 0 6 23 10 50 10 28 0 50 5 50 10 0 6 18 10 40 10 22 0 40 5
40 10 0 6 23 10 50 10 28 0 50 5 50 10 0 6 16 10 36 10 50 0 64 18 64 84 0 49
-2 56 -20 56 -11 0 -20 -4 -20 -10z"/>
<path d="M3360 950 c0 -5 -22 -10 -50 -10 -27 0 -50 -4 -50 -10 0 -5 -18 -10
-40 -10 -22 0 -40 -4 -40 -10 0 -5 -22 -10 -50 -10 -27 0 -50 -4 -50 -10 0 -5
-22 -10 -50 -10 -27 0 -50 -4 -50 -10 0 -5 -22 -10 -50 -10 -27 0 -50 -4 -50
-10 0 -5 -18 -10 -40 -10 -22 0 -40 -4 -40 -10 0 -5 -22 -10 -50 -10 -27 0
-50 -4 -50 -10 0 -5 -22 -10 -50 -10 -27 0 -50 -4 -50 -10 0 -5 -18 -10 -40
-10 -22 0 -40 -4 -40 -10 0 -5 -22 -10 -50 -10 -27 0 -50 -4 -50 -10 0 -5 -21
-10 -46 -10 -58 0 -74 -16 -74 -74 l0 -46 40 0 c22 0 40 5 40 10 0 6 23 10 50
10 28 0 50 5 50 10 0 6 23 10 50 10 28 0 50 5 50 10 0 6 18 10 40 10 22 0 40
5 40 10 0 6 23 10 50 10 28 0 50 5 50 10 0 6 23 10 50 10 28 0 50 5 50 10 0 6
23 10 50 10 28 0 50 5 50 10 0 6 18 10 40 10 22 0 40 5 40 10 0 6 23 10 50 10
28 0 50 5 50 10 0 6 23 10 50 10 28 0 50 5 50 10 0 6 18 10 40 10 22 0 40 5
40 10 0 6 23 10 50 10 l50 0 0 60 0 60 -30 0 c-16 0 -30 -4 -30 -10z"/>
<path d="M3340 690 c0 -5 -22 -10 -50 -10 -27 0 -50 -4 -50 -10 0 -5 -22 -10
-50 -10 -27 0 -50 -4 -50 -10 0 -5 -18 -10 -40 -10 -22 0 -40 -4 -40 -10 0 -5
-22 -10 -50 -10 -27 0 -50 -4 -50 -10 0 -5 -22 -10 -50 -10 -27 0 -50 -4 -50
-10 0 -5 -22 -10 -50 -10 -27 0 -50 -4 -50 -10 0 -5 -18 -10 -40 -10 -22 0
-40 -4 -40 -10 0 -5 -22 -10 -50 -10 -27 0 -50 -4 -50 -10 0 -5 -22 -10 -50
-10 -27 0 -50 -4 -50 -10 0 -5 -18 -10 -40 -10 -22 0 -40 -4 -40 -10 0 -5 -22
-10 -50 -10 l-50 0 0 -50 c0 -43 3 -50 20 -50 11 0 20 5 20 10 0 6 23 10 50
10 28 0 50 5 50 10 0 6 18 10 40 10 22 0 40 5 40 10 0 6 23 10 50 10 28 0 50
5 50 10 0 6 23 10 50 10 28 0 50 5 50 10 0 6 23 10 50 10 28 0 50 5 50 10 0 6
18 10 40 10 22 0 40 5 40 10 0 6 23 10 50 10 28 0 50 5 50 10 0 6 23 10 50 10
28 0 50 5 50 10 0 6 18 10 40 10 22 0 40 5 40 10 0 6 23 10 50 10 28 0 50 5
50 10 0 6 23 10 50 10 28 0 50 5 50 10 0 6 9 10 20 10 17 0 20 7 20 40 l0 40
-40 0 c-22 0 -40 -4 -40 -10z"/>
</g>
</svg>
